<mxfile host="app.diagrams.net" modified="2024-01-24T03:50:20.301Z" agent="Mozilla/5.0 (Windows NT 10.0; Win64; x64) AppleWebKit/537.36 (KHTML, like Gecko) Chrome/120.0.0.0 Safari/537.36" etag="6LIqvsqAytDCsgyhoVbb" version="23.0.0" type="github">
  <diagram name="Page-1" id="k3lMWTFjlu2Pv2HnePQu">
    <mxGraphModel dx="587" dy="312" grid="1" gridSize="10" guides="1" tooltips="1" connect="1" arrows="1" fold="1" page="1" pageScale="1" pageWidth="850" pageHeight="1100" math="0" shadow="0">
      <root>
        <mxCell id="0" />
        <mxCell id="1" parent="0" />
        <mxCell id="ThSjzOqPM37G3B35xQ5C-11" value="" style="edgeStyle=orthogonalEdgeStyle;rounded=0;orthogonalLoop=1;jettySize=auto;html=1;" parent="1" edge="1">
          <mxGeometry relative="1" as="geometry">
            <mxPoint x="180" y="449.74" as="sourcePoint" />
            <mxPoint x="220" y="449.74" as="targetPoint" />
          </mxGeometry>
        </mxCell>
        <mxCell id="ThSjzOqPM37G3B35xQ5C-9" value="&lt;font style=&quot;font-size: 18px;&quot;&gt;User&lt;/font&gt;" style="rounded=1;whiteSpace=wrap;html=1;" parent="1" vertex="1">
          <mxGeometry x="90" y="430" width="90" height="40" as="geometry" />
        </mxCell>
        <mxCell id="ThSjzOqPM37G3B35xQ5C-10" value="&lt;font style=&quot;font-size: 15px;&quot;&gt;Halaman utama website&lt;/font&gt;" style="rounded=1;whiteSpace=wrap;html=1;" parent="1" vertex="1">
          <mxGeometry x="220" y="420" width="120" height="60" as="geometry" />
        </mxCell>
        <mxCell id="ThSjzOqPM37G3B35xQ5C-14" value="&lt;span style=&quot;font-size: 15px;&quot;&gt;Pencarian Buku&lt;/span&gt;" style="rounded=1;whiteSpace=wrap;html=1;" parent="1" vertex="1">
          <mxGeometry x="420" y="490" width="120" height="50" as="geometry" />
        </mxCell>
        <mxCell id="ThSjzOqPM37G3B35xQ5C-20" value="" style="endArrow=none;html=1;rounded=0;exitX=1;exitY=0.5;exitDx=0;exitDy=0;" parent="1" source="ThSjzOqPM37G3B35xQ5C-10" edge="1">
          <mxGeometry width="50" height="50" relative="1" as="geometry">
            <mxPoint x="360" y="440" as="sourcePoint" />
            <mxPoint x="370" y="450" as="targetPoint" />
          </mxGeometry>
        </mxCell>
        <mxCell id="ThSjzOqPM37G3B35xQ5C-21" value="" style="endArrow=none;html=1;rounded=0;" parent="1" edge="1">
          <mxGeometry width="50" height="50" relative="1" as="geometry">
            <mxPoint x="370" y="520" as="sourcePoint" />
            <mxPoint x="370" y="380" as="targetPoint" />
          </mxGeometry>
        </mxCell>
        <mxCell id="ThSjzOqPM37G3B35xQ5C-28" value="" style="edgeStyle=orthogonalEdgeStyle;rounded=0;orthogonalLoop=1;jettySize=auto;html=1;" parent="1" edge="1">
          <mxGeometry relative="1" as="geometry">
            <mxPoint x="487.4" y="360" as="sourcePoint" />
            <mxPoint x="487.07" y="310" as="targetPoint" />
          </mxGeometry>
        </mxCell>
        <mxCell id="ThSjzOqPM37G3B35xQ5C-22" value="&lt;span style=&quot;font-size: 15px;&quot;&gt;Catatan Pengunjung&lt;/span&gt;" style="rounded=1;whiteSpace=wrap;html=1;" parent="1" vertex="1">
          <mxGeometry x="420" y="360" width="130" height="60" as="geometry" />
        </mxCell>
        <mxCell id="ThSjzOqPM37G3B35xQ5C-25" value="" style="edgeStyle=orthogonalEdgeStyle;rounded=0;orthogonalLoop=1;jettySize=auto;html=1;" parent="1" edge="1">
          <mxGeometry relative="1" as="geometry">
            <mxPoint x="370" y="380" as="sourcePoint" />
            <mxPoint x="420" y="380" as="targetPoint" />
          </mxGeometry>
        </mxCell>
        <mxCell id="ThSjzOqPM37G3B35xQ5C-26" value="" style="edgeStyle=orthogonalEdgeStyle;rounded=0;orthogonalLoop=1;jettySize=auto;html=1;" parent="1" edge="1">
          <mxGeometry relative="1" as="geometry">
            <mxPoint x="370" y="520" as="sourcePoint" />
            <mxPoint x="420" y="520" as="targetPoint" />
          </mxGeometry>
        </mxCell>
        <mxCell id="ThSjzOqPM37G3B35xQ5C-31" value="" style="edgeStyle=orthogonalEdgeStyle;rounded=0;orthogonalLoop=1;jettySize=auto;html=1;" parent="1" edge="1">
          <mxGeometry relative="1" as="geometry">
            <mxPoint x="487.5" y="250" as="sourcePoint" />
            <mxPoint x="487.01428571428573" y="200" as="targetPoint" />
          </mxGeometry>
        </mxCell>
        <mxCell id="ThSjzOqPM37G3B35xQ5C-27" value="&lt;span style=&quot;font-size: 15px;&quot;&gt;Isi Form Kunjungan&lt;/span&gt;" style="rounded=1;whiteSpace=wrap;html=1;" parent="1" vertex="1">
          <mxGeometry x="425" y="250" width="125" height="60" as="geometry" />
        </mxCell>
        <mxCell id="ThSjzOqPM37G3B35xQ5C-30" value="&lt;span style=&quot;font-size: 15px;&quot;&gt;Kirim&lt;/span&gt;" style="rounded=1;whiteSpace=wrap;html=1;" parent="1" vertex="1">
          <mxGeometry x="430" y="160" width="115" height="40" as="geometry" />
        </mxCell>
        <mxCell id="ThSjzOqPM37G3B35xQ5C-34" value="" style="edgeStyle=orthogonalEdgeStyle;rounded=0;orthogonalLoop=1;jettySize=auto;html=1;" parent="1" edge="1">
          <mxGeometry relative="1" as="geometry">
            <mxPoint x="545" y="179.88" as="sourcePoint" />
            <mxPoint x="590" y="179.59" as="targetPoint" />
          </mxGeometry>
        </mxCell>
        <mxCell id="ThSjzOqPM37G3B35xQ5C-35" value="&lt;span style=&quot;font-size: 15px;&quot;&gt;Riwayat kunjungan&lt;/span&gt;" style="rounded=1;whiteSpace=wrap;html=1;" parent="1" vertex="1">
          <mxGeometry x="590" y="150" width="125" height="60" as="geometry" />
        </mxCell>
        <mxCell id="ThSjzOqPM37G3B35xQ5C-38" value="&lt;font style=&quot;font-size: 13px;&quot;&gt;Isi lagi atau cari buku&lt;/font&gt;" style="rhombus;whiteSpace=wrap;html=1;rounded=1;" parent="1" vertex="1">
          <mxGeometry x="601.25" y="260" width="102.5" height="100" as="geometry" />
        </mxCell>
        <mxCell id="ThSjzOqPM37G3B35xQ5C-40" value="" style="endArrow=none;html=1;rounded=0;exitX=1;exitY=0.5;exitDx=0;exitDy=0;" parent="1" edge="1">
          <mxGeometry width="50" height="50" relative="1" as="geometry">
            <mxPoint x="703.75" y="309.68" as="sourcePoint" />
            <mxPoint x="720" y="310" as="targetPoint" />
          </mxGeometry>
        </mxCell>
        <mxCell id="ThSjzOqPM37G3B35xQ5C-41" value="" style="edgeStyle=orthogonalEdgeStyle;rounded=0;orthogonalLoop=1;jettySize=auto;html=1;" parent="1" edge="1">
          <mxGeometry relative="1" as="geometry">
            <mxPoint x="652.2299999999999" y="210" as="sourcePoint" />
            <mxPoint x="652.2299999999999" y="259.99999999999994" as="targetPoint" />
          </mxGeometry>
        </mxCell>
        <mxCell id="ThSjzOqPM37G3B35xQ5C-43" value="" style="endArrow=none;html=1;rounded=0;" parent="1" edge="1">
          <mxGeometry width="50" height="50" relative="1" as="geometry">
            <mxPoint x="720" y="520" as="sourcePoint" />
            <mxPoint x="720" y="310" as="targetPoint" />
          </mxGeometry>
        </mxCell>
        <mxCell id="ThSjzOqPM37G3B35xQ5C-44" value="" style="endArrow=classic;html=1;rounded=0;entryX=1;entryY=0.5;entryDx=0;entryDy=0;" parent="1" edge="1">
          <mxGeometry width="50" height="50" relative="1" as="geometry">
            <mxPoint x="720" y="520" as="sourcePoint" />
            <mxPoint x="540.0000000000001" y="520" as="targetPoint" />
          </mxGeometry>
        </mxCell>
        <mxCell id="ThSjzOqPM37G3B35xQ5C-46" value="" style="endArrow=none;html=1;rounded=0;" parent="1" edge="1">
          <mxGeometry width="50" height="50" relative="1" as="geometry">
            <mxPoint x="652" y="390" as="sourcePoint" />
            <mxPoint x="652.19" y="360" as="targetPoint" />
          </mxGeometry>
        </mxCell>
        <mxCell id="ThSjzOqPM37G3B35xQ5C-47" value="" style="endArrow=classic;html=1;rounded=0;" parent="1" edge="1">
          <mxGeometry width="50" height="50" relative="1" as="geometry">
            <mxPoint x="650" y="390" as="sourcePoint" />
            <mxPoint x="550" y="389.85" as="targetPoint" />
          </mxGeometry>
        </mxCell>
        <mxCell id="ThSjzOqPM37G3B35xQ5C-49" value="&lt;span style=&quot;font-size: 15px;&quot;&gt;Cari kata kunci buku&lt;/span&gt;" style="rounded=1;whiteSpace=wrap;html=1;" parent="1" vertex="1">
          <mxGeometry x="295" y="630" width="130" height="60" as="geometry" />
        </mxCell>
        <mxCell id="ThSjzOqPM37G3B35xQ5C-61" value="" style="edgeStyle=orthogonalEdgeStyle;rounded=0;orthogonalLoop=1;jettySize=auto;html=1;" parent="1" edge="1">
          <mxGeometry relative="1" as="geometry">
            <mxPoint x="359.8" y="690" as="sourcePoint" />
            <mxPoint x="359.82857142857137" y="740" as="targetPoint" />
            <Array as="points">
              <mxPoint x="360.09000000000003" y="720" />
              <mxPoint x="360.09000000000003" y="720" />
            </Array>
          </mxGeometry>
        </mxCell>
        <mxCell id="ThSjzOqPM37G3B35xQ5C-51" value="&lt;span style=&quot;font-size: 15px;&quot;&gt;Tombol cari&lt;/span&gt;" style="rounded=1;whiteSpace=wrap;html=1;" parent="1" vertex="1">
          <mxGeometry x="295" y="740" width="130" height="50" as="geometry" />
        </mxCell>
        <mxCell id="ThSjzOqPM37G3B35xQ5C-54" value="" style="endArrow=none;html=1;rounded=0;" parent="1" edge="1">
          <mxGeometry width="50" height="50" relative="1" as="geometry">
            <mxPoint x="479" y="590" as="sourcePoint" />
            <mxPoint x="479.28999999999996" y="540" as="targetPoint" />
          </mxGeometry>
        </mxCell>
        <mxCell id="ThSjzOqPM37G3B35xQ5C-55" value="" style="endArrow=none;html=1;rounded=0;" parent="1" edge="1">
          <mxGeometry width="50" height="50" relative="1" as="geometry">
            <mxPoint x="360" y="590" as="sourcePoint" />
            <mxPoint x="590" y="590" as="targetPoint" />
          </mxGeometry>
        </mxCell>
        <mxCell id="ThSjzOqPM37G3B35xQ5C-57" value="" style="edgeStyle=orthogonalEdgeStyle;rounded=0;orthogonalLoop=1;jettySize=auto;html=1;" parent="1" edge="1">
          <mxGeometry relative="1" as="geometry">
            <mxPoint x="360" y="590" as="sourcePoint" />
            <mxPoint x="359.9999999999999" y="630" as="targetPoint" />
          </mxGeometry>
        </mxCell>
        <mxCell id="ThSjzOqPM37G3B35xQ5C-58" value="" style="edgeStyle=orthogonalEdgeStyle;rounded=0;orthogonalLoop=1;jettySize=auto;html=1;" parent="1" edge="1">
          <mxGeometry relative="1" as="geometry">
            <mxPoint x="590" y="590" as="sourcePoint" />
            <mxPoint x="589.9999999999999" y="630" as="targetPoint" />
          </mxGeometry>
        </mxCell>
        <mxCell id="ThSjzOqPM37G3B35xQ5C-59" value="&lt;font style=&quot;font-size: 13px;&quot;&gt;Rekomendasi buku secara acak&lt;/font&gt;" style="rounded=1;whiteSpace=wrap;html=1;" parent="1" vertex="1">
          <mxGeometry x="520" y="630" width="130" height="60" as="geometry" />
        </mxCell>
        <mxCell id="ThSjzOqPM37G3B35xQ5C-63" value="" style="edgeStyle=orthogonalEdgeStyle;rounded=0;orthogonalLoop=1;jettySize=auto;html=1;exitX=1;exitY=0.5;exitDx=0;exitDy=0;" parent="1" edge="1" source="_oOa8pN7kJs9aklfXITM-4">
          <mxGeometry relative="1" as="geometry">
            <mxPoint x="430" y="864.53" as="sourcePoint" />
            <mxPoint x="505" y="864.93" as="targetPoint" />
          </mxGeometry>
        </mxCell>
        <mxCell id="ThSjzOqPM37G3B35xQ5C-62" value="&lt;span style=&quot;font-size: 15px;&quot;&gt;Lihat detail buku&lt;/span&gt;" style="rounded=1;whiteSpace=wrap;html=1;" parent="1" vertex="1">
          <mxGeometry x="505" y="835" width="160" height="50" as="geometry" />
        </mxCell>
        <mxCell id="ThSjzOqPM37G3B35xQ5C-64" value="" style="edgeStyle=orthogonalEdgeStyle;rounded=0;orthogonalLoop=1;jettySize=auto;html=1;entryX=0.531;entryY=0;entryDx=0;entryDy=0;entryPerimeter=0;" parent="1" target="ThSjzOqPM37G3B35xQ5C-62" edge="1">
          <mxGeometry relative="1" as="geometry">
            <mxPoint x="590" y="690" as="sourcePoint" />
            <mxPoint x="590.0285714285714" y="740" as="targetPoint" />
          </mxGeometry>
        </mxCell>
        <mxCell id="_oOa8pN7kJs9aklfXITM-3" value="" style="edgeStyle=orthogonalEdgeStyle;rounded=0;orthogonalLoop=1;jettySize=auto;html=1;" edge="1" parent="1">
          <mxGeometry relative="1" as="geometry">
            <mxPoint x="359.8" y="790" as="sourcePoint" />
            <mxPoint x="359.82857142857137" y="840" as="targetPoint" />
            <Array as="points">
              <mxPoint x="360.09000000000003" y="820" />
              <mxPoint x="360.09000000000003" y="820" />
            </Array>
          </mxGeometry>
        </mxCell>
        <mxCell id="_oOa8pN7kJs9aklfXITM-4" value="&lt;span style=&quot;font-size: 15px;&quot;&gt;Hasil pencarian&lt;/span&gt;" style="rounded=1;whiteSpace=wrap;html=1;" vertex="1" parent="1">
          <mxGeometry x="295" y="840" width="130" height="50" as="geometry" />
        </mxCell>
        <mxCell id="_oOa8pN7kJs9aklfXITM-5" value="" style="endArrow=none;html=1;rounded=0;" edge="1" parent="1">
          <mxGeometry width="50" height="50" relative="1" as="geometry">
            <mxPoint x="220" y="870.48" as="sourcePoint" />
            <mxPoint x="295" y="870" as="targetPoint" />
          </mxGeometry>
        </mxCell>
        <mxCell id="_oOa8pN7kJs9aklfXITM-6" value="" style="endArrow=none;html=1;rounded=0;" edge="1" parent="1">
          <mxGeometry width="50" height="50" relative="1" as="geometry">
            <mxPoint x="220" y="870" as="sourcePoint" />
            <mxPoint x="220" y="660" as="targetPoint" />
          </mxGeometry>
        </mxCell>
        <mxCell id="_oOa8pN7kJs9aklfXITM-7" value="" style="edgeStyle=orthogonalEdgeStyle;rounded=0;orthogonalLoop=1;jettySize=auto;html=1;" edge="1" parent="1">
          <mxGeometry relative="1" as="geometry">
            <mxPoint x="220" y="660" as="sourcePoint" />
            <mxPoint x="295" y="659.77" as="targetPoint" />
          </mxGeometry>
        </mxCell>
        <mxCell id="_oOa8pN7kJs9aklfXITM-8" value="&lt;font style=&quot;font-size: 14px;&quot;&gt;&lt;b&gt;Cari buku&lt;/b&gt;&lt;/font&gt;" style="text;html=1;strokeColor=none;fillColor=none;align=center;verticalAlign=middle;whiteSpace=wrap;rounded=0;" vertex="1" parent="1">
          <mxGeometry x="720" y="410" width="80" height="30" as="geometry" />
        </mxCell>
        <mxCell id="_oOa8pN7kJs9aklfXITM-9" value="&lt;b style=&quot;&quot;&gt;&lt;font style=&quot;font-size: 13px;&quot;&gt;Isi kunjungan lagi&lt;/font&gt;&lt;/b&gt;" style="text;html=1;strokeColor=none;fillColor=none;align=center;verticalAlign=middle;whiteSpace=wrap;rounded=0;" vertex="1" parent="1">
          <mxGeometry x="555" y="390" width="110" height="30" as="geometry" />
        </mxCell>
        <mxCell id="_oOa8pN7kJs9aklfXITM-10" value="&lt;span style=&quot;font-size: 14px;&quot;&gt;&lt;b&gt;Buku tidak ada&lt;/b&gt;&lt;/span&gt;" style="text;html=1;strokeColor=none;fillColor=none;align=center;verticalAlign=middle;whiteSpace=wrap;rounded=0;" vertex="1" parent="1">
          <mxGeometry x="220" y="810" width="80" height="30" as="geometry" />
        </mxCell>
        <mxCell id="_oOa8pN7kJs9aklfXITM-11" value="&lt;span style=&quot;font-size: 14px;&quot;&gt;&lt;b&gt;Buku ada&lt;/b&gt;&lt;/span&gt;" style="text;html=1;strokeColor=none;fillColor=none;align=center;verticalAlign=middle;whiteSpace=wrap;rounded=0;" vertex="1" parent="1">
          <mxGeometry x="425" y="830" width="80" height="30" as="geometry" />
        </mxCell>
      </root>
    </mxGraphModel>
  </diagram>
</mxfile>
